<?xml version="1.0" encoding="UTF-8" standalone="no"?>
<!-- Created with Inkscape (http://www.inkscape.org/) -->

<svg
   xmlns:dc="http://purl.org/dc/elements/1.1/"
   xmlns:cc="http://creativecommons.org/ns#"
   xmlns:rdf="http://www.w3.org/1999/02/22-rdf-syntax-ns#"
   xmlns:svg="http://www.w3.org/2000/svg"
   xmlns="http://www.w3.org/2000/svg"
   xmlns:xlink="http://www.w3.org/1999/xlink"
   xmlns:sodipodi="http://sodipodi.sourceforge.net/DTD/sodipodi-0.dtd"
   xmlns:inkscape="http://www.inkscape.org/namespaces/inkscape"
   width="45.720001mm"
   height="32.004002mm"
   viewBox="0 0 45.720001 32.004002"
   version="1.1"
   id="svg8"
   inkscape:version="0.92.2 2405546, 2018-03-11"
   sodipodi:docname="after-heisei.svg"
   inkscape:export-filename="announcement-blank.png"
   inkscape:export-xdpi="349.99997"
   inkscape:export-ydpi="349.99997">
  <defs
     id="defs2">
    <linearGradient
       inkscape:collect="always"
       id="linearGradient895">
      <stop
         style="stop-color:#f2f1e7;stop-opacity:1"
         offset="0"
         id="stop891" />
      <stop
         style="stop-color:#f9faf5;stop-opacity:1"
         offset="1"
         id="stop893" />
    </linearGradient>
    <linearGradient
       inkscape:collect="always"
       xlink:href="#linearGradient895"
       id="linearGradient897"
       x1="67.678482"
       y1="95.138992"
       x2="66.845459"
       y2="87.746246"
       gradientUnits="userSpaceOnUse"
       gradientTransform="translate(-14.633007,0.53453906)" />
    <clipPath
       id="XMLID_5_">
      <use
         xlink:href="#XMLID_69_"
         style="overflow:visible"
         id="use4749"
         x="0"
         y="0"
         width="100%"
         height="100%" />
    </clipPath>
    <path
       id="XMLID_69_"
       d="m 361.3,272.1 c 0,0 14.4,4.6 45.4,5.4 31,0.8 49.6,-7.3 49.6,-7.3 L 410.8,156.8 Z"
       inkscape:connector-curvature="0" />
  </defs>
  <sodipodi:namedview
     id="base"
     pagecolor="#ffffff"
     bordercolor="#666666"
     borderopacity="1.0"
     inkscape:pageopacity="0.0"
     inkscape:pageshadow="2"
     inkscape:zoom="5.6"
     inkscape:cx="55.124585"
     inkscape:cy="52.649031"
     inkscape:document-units="mm"
     inkscape:current-layer="layer1"
     showgrid="false"
     fit-margin-top="0"
     fit-margin-left="0"
     fit-margin-right="0"
     fit-margin-bottom="0"
     inkscape:window-width="2560"
     inkscape:window-height="1310"
     inkscape:window-x="0"
     inkscape:window-y="1"
     inkscape:window-maximized="1" />
  <metadata
     id="metadata5">
    <rdf:RDF>
      <cc:Work
         rdf:about="">
        <dc:format>image/svg+xml</dc:format>
        <dc:type
           rdf:resource="http://purl.org/dc/dcmitype/StillImage" />
        <dc:title></dc:title>
      </cc:Work>
    </rdf:RDF>
  </metadata>
  <g
     inkscape:label="Background"
     inkscape:groupmode="layer"
     id="layer1"
     transform="translate(-39.884041,-78.402763)"
     style="display:inline"
     sodipodi:insensitive="true">
    <image
       sodipodi:absref="/Users/amake/Code/nengo/img/heisei-announcement.jpg"
       xlink:href="heisei-announcement.jpg"
       y="78.402763"
       x="39.884041"
       id="image987"
       preserveAspectRatio="none"
       height="32.004002"
       width="45.720001" />
  </g>
  <g
     inkscape:groupmode="layer"
     id="layer2"
     inkscape:label="Blank"
     style="display:inline"
     sodipodi:insensitive="true">
    <path
       transform="translate(-39.88404,-78.402762)"
       style="opacity:1;fill:url(#linearGradient897);fill-opacity:1;stroke:none;stroke-width:0.26499999;stroke-miterlimit:4;stroke-dasharray:none;stroke-dashoffset:0;stroke-opacity:1"
       d="M 45.495112,81.465242 57.286835,80.727015 58.460863,95.582902 47.69572,96.061966 Z"
       id="rect880"
       inkscape:connector-curvature="0"
       sodipodi:nodetypes="ccccc" />
  </g>
  <g
     inkscape:groupmode="layer"
     id="layer5"
     inkscape:label="Party"
     style="display:inline">
    <g
       transform="matrix(0.05432623,0,0,0.05432623,3.337896,-7.1935311)"
       style="display:inline"
       id="XMLID_117_">
      <path
         id="XMLID_137_"
         class="st26"
         d="m 422.7,374.9 3.1,4.4 c 0,0 -0.2,3.6 7.5,9 7.7,5.4 23.2,17.5 31.6,16.6 8.4,-0.9 10,-8.7 9.6,-11.8 -0.4,-3.1 -11,-10 -11,-10 0,0 -20.5,-9.8 -24.8,-11.2 -4.3,-1.4 -6.4,-1 -6.4,-1 z"
         inkscape:connector-curvature="0"
         style="fill:#2dabe2" />
      <path
         id="XMLID_136_"
         class="st24"
         d="m 400.7,359.9 25.1,19.4 c 0,0 1,-6.1 7,-8.1 l -20.5,-11.4 h -11.6 z"
         inkscape:connector-curvature="0"
         style="fill:#ffffff" />
      <path
         id="XMLID_135_"
         class="st31"
         d="m 473.3,389.8 c 0,0 -2.9,7.8 -7.6,9.1 -4.7,1.3 -7,-4.6 -7,-4.6 l 0.6,-4.1 1.9,-3.6 4.9,-1.7 c 0,0 3.9,-1.6 5,-0.4 1,1.2 2.2,5.3 2.2,5.3 z"
         inkscape:connector-curvature="0"
         style="fill:#0e8ab2" />
      <path
         id="XMLID_134_"
         class="st32"
         d="m 461.8,386.7 -2.5,0.7 c 0,0 -3,3.4 -2.2,7.6 0.8,4.2 6,5.6 8.6,3.9 2.6,-1.7 1.4,-4.5 -0.5,-4.7 -1.9,-0.2 -3.5,1.4 -4.7,0.4 -1.2,-1.1 -0.3,-5.6 1.3,-7.9 z"
         inkscape:connector-curvature="0"
         style="fill:#5acbf3" />
      <circle
         id="XMLID_133_"
         class="st33"
         cx="431.10001"
         cy="381.70001"
         r="1.6"
         style="fill:#abe1f8" />
      <circle
         id="XMLID_132_"
         class="st33"
         cx="435"
         cy="374"
         r="1.6"
         style="fill:#abe1f8" />
      <circle
         id="XMLID_131_"
         class="st33"
         cx="440.20001"
         cy="379.29999"
         r="1.6"
         style="fill:#abe1f8" />
      <circle
         id="XMLID_130_"
         class="st33"
         cx="436.60001"
         cy="386.70001"
         r="1.6"
         style="fill:#abe1f8" />
      <circle
         id="XMLID_129_"
         class="st33"
         cx="448.60001"
         cy="378.79999"
         r="1.6"
         style="fill:#abe1f8" />
      <circle
         id="XMLID_128_"
         class="st33"
         cx="446.5"
         cy="386.70001"
         r="1.6"
         style="fill:#abe1f8" />
      <circle
         id="XMLID_127_"
         class="st33"
         cx="453.79999"
         cy="383.29999"
         r="1.6"
         style="fill:#abe1f8" />
      <circle
         id="XMLID_126_"
         class="st33"
         cx="453.10001"
         cy="391.5"
         r="1.6"
         style="fill:#abe1f8" />
      <circle
         id="XMLID_125_"
         class="st33"
         cx="446.5"
         cy="394.70001"
         r="1.6"
         style="fill:#abe1f8" />
      <circle
         id="XMLID_124_"
         class="st33"
         cx="456.29999"
         cy="399.10001"
         r="1.6"
         style="fill:#abe1f8" />
      <circle
         id="XMLID_123_"
         class="st33"
         cx="466.70001"
         cy="401.20001"
         r="1.6"
         style="fill:#abe1f8" />
      <circle
         id="XMLID_122_"
         class="st33"
         cx="468.20001"
         cy="393.10001"
         r="1.6"
         style="fill:#abe1f8" />
      <path
         id="XMLID_121_"
         class="st32"
         d="m 469.2,378 c -0.8,0.6 -10,9.3 -10,9.3 0,0 7.3,-0.6 11.3,2.6 3.9,3.2 0.4,12.3 0.4,12.3 0,0 5,-4.4 7.5,-10.8 2.5,-6.4 1.7,-10 -0.8,-12.1 -2.5,-2.1 -6.3,-2.8 -8.4,-1.3 z"
         inkscape:connector-curvature="0"
         style="fill:#5acbf3" />
      <circle
         id="XMLID_120_"
         class="st33"
         cx="466"
         cy="383.29999"
         r="1.6"
         style="fill:#abe1f8" />
      <circle
         id="XMLID_119_"
         class="st33"
         cx="474.5"
         cy="381.70001"
         r="1.6"
         style="fill:#abe1f8" />
      <circle
         id="XMLID_118_"
         class="st33"
         cx="474.5"
         cy="388.60001"
         r="1.6"
         style="fill:#abe1f8" />
    </g>
    <g
       style="display:inline"
       id="g6602"
       transform="matrix(0.74013782,0,0,0.74013782,-20.825705,-56.290066)">
      <path
         id="XMLID_88_"
         class="st26"
         d="m 59.15854,85.909068 c 0,0 1.056962,0.33764 3.332367,0.396361 2.275406,0.05872 3.640649,-0.535821 3.640649,-0.535821 l -3.339708,-8.323579 z"
         inkscape:connector-curvature="0"
         style="display:inline;fill:#2dabe2;stroke-width:0.07340016" />
      <path
         id="XMLID_70_"
         class="st27"
         d="m 62.821208,78.143331 c 0.411041,0 0.748681,-0.337641 0.748681,-0.748682 0,-0.411041 -0.33764,-0.748682 -0.748681,-0.748682 -0.411041,0 -0.748682,0.337641 -0.748682,0.748682 -0.0073,0.411041 0.330301,0.748682 0.748682,0.748682 z"
         inkscape:connector-curvature="0"
         style="clip-rule:evenodd;fill:#5acbf3;fill-rule:evenodd;stroke-width:0.07340016" />
      <g
         transform="matrix(0.07340016,0,0,0.07340016,32.639062,65.936884)"
         id="XMLID_59_">
        <defs
           id="defs4747" />
        <clipPath
           id="clipPath6437">
          <use
             xlink:href="#XMLID_69_"
             style="overflow:visible"
             id="use6435"
             x="0"
             y="0"
             width="100%"
             height="100%" />
        </clipPath>
        <g
           id="XMLID_77_"
           class="st28"
           clip-path="url(#XMLID_5_)">
          <g
             id="XMLID_78_">
            <path
               id="XMLID_86_"
               class="st29"
               d="m 340.6,290.3 c 0,-2.1 0,-4.2 0,-6.4 44.5,-57.4 89,38.2 133.5,-19.1 0,2.1 0,4.2 0,6.4 -44.6,57.3 -89,-38.3 -133.5,19.1 z"
               inkscape:connector-curvature="0"
               style="clip-rule:evenodd;fill:#abe1f8;fill-rule:evenodd" />
            <path
               id="XMLID_85_"
               class="st29"
               d="m 339.6,273.8 c 0,-2.1 0,-4.2 0,-6.4 44.5,-57.4 89,38.2 133.5,-19.1 0,2.1 0,4.2 0,6.4 -44.5,57.3 -89,-38.3 -133.5,19.1 z"
               inkscape:connector-curvature="0"
               style="clip-rule:evenodd;fill:#abe1f8;fill-rule:evenodd" />
            <path
               id="XMLID_84_"
               class="st29"
               d="m 338.6,257.3 c 0,-2.1 0,-4.2 0,-6.4 44.5,-57.4 89,38.2 133.5,-19.1 0,2.1 0,4.2 0,6.4 -44.5,57.3 -89,-38.3 -133.5,19.1 z"
               inkscape:connector-curvature="0"
               style="clip-rule:evenodd;fill:#abe1f8;fill-rule:evenodd" />
            <path
               id="XMLID_83_"
               class="st29"
               d="m 337.7,240.8 c 0,-2.1 0,-4.2 0,-6.4 44.5,-57.4 89,38.2 133.5,-19.1 0,2.1 0,4.2 0,6.4 -44.5,57.4 -89,-38.2 -133.5,19.1 z"
               inkscape:connector-curvature="0"
               style="clip-rule:evenodd;fill:#abe1f8;fill-rule:evenodd" />
            <path
               id="XMLID_82_"
               class="st29"
               d="m 336.7,224.4 c 0,-2.1 0,-4.2 0,-6.4 44.5,-57.4 89,38.2 133.5,-19.1 0,2.1 0,4.2 0,6.4 -44.5,57.3 -89,-38.3 -133.5,19.1 z"
               inkscape:connector-curvature="0"
               style="clip-rule:evenodd;fill:#abe1f8;fill-rule:evenodd" />
            <path
               id="XMLID_81_"
               class="st29"
               d="m 335.8,207.9 c 0,-2.1 0,-4.2 0,-6.4 44.5,-57.4 89,38.2 133.5,-19.1 0,2.1 0,4.2 0,6.4 -44.6,57.3 -89.1,-38.3 -133.5,19.1 z"
               inkscape:connector-curvature="0"
               style="clip-rule:evenodd;fill:#abe1f8;fill-rule:evenodd" />
            <path
               id="XMLID_80_"
               class="st29"
               d="m 334.8,191.4 c 0,-2.1 0,-4.2 0,-6.4 44.5,-57.4 89,38.2 133.5,-19.1 0,2.1 0,4.2 0,6.4 -44.5,57.3 -89,-38.3 -133.5,19.1 z"
               inkscape:connector-curvature="0"
               style="clip-rule:evenodd;fill:#abe1f8;fill-rule:evenodd" />
            <path
               id="XMLID_79_"
               class="st29"
               d="m 333.8,174.9 c 0,-2.1 0,-4.2 0,-6.4 44.5,-57.4 89,38.2 133.5,-19.1 0,2.1 0,4.2 0,6.4 -44.5,57.4 -89,-38.2 -133.5,19.1 z"
               inkscape:connector-curvature="0"
               style="clip-rule:evenodd;fill:#abe1f8;fill-rule:evenodd" />
          </g>
        </g>
      </g>
      <path
         id="XMLID_75_"
         class="st35"
         d="m 63.72403,86.276068 c 1.526723,-0.11744 2.407525,-0.506461 2.407525,-0.506461 l -2.958026,-7.369376 v 0 c 0,0 1.776283,5.629792 1.886384,6.385814 0.10276,0.675282 -1.056963,1.335883 -1.335883,1.490023 z"
         inkscape:connector-curvature="0"
         style="opacity:0.25;fill:#2c2b25;stroke-width:0.07340016" />
      <path
         id="XMLID_87_"
         class="st25"
         d="m 59.15854,85.909068 c 0,0 0.447741,0.33764 1.680864,0.579862 1.233122,0.242219 3.772768,-0.04404 4.66825,-0.462422 0.895482,-0.411039 -6.349114,-0.11744 -6.349114,-0.11744 z"
         inkscape:connector-curvature="0"
         style="clip-rule:evenodd;display:inline;opacity:0.25;fill:#2c2b25;fill-rule:evenodd;stroke-width:0.07340016" />
    </g>
  </g>
  <g
     inkscape:groupmode="layer"
     id="layer3"
     inkscape:label="ReplacementCharacter"
     style="display:none">
    <path
       inkscape:connector-curvature="0"
       style="stroke:none;stroke-width:0.04488467"
       d="M 16.567875,10.17721 12.471881,15.02649 7.6226015,10.930496 11.718595,6.0812166 Z M 13.594334,9.2882746 Q 13.543377,8.6831565 13.062214,8.3182802 12.581052,7.9534081 11.939099,8.0074673 11.165594,8.0726046 10.611985,8.3576884 L 10.596585,9.3075511 Q 11.009842,8.9918907 11.536035,8.9475797 11.93068,8.9143464 12.206681,9.108373 12.482682,9.3023991 12.51237,9.6549498 12.544717,10.039072 12.149491,10.663217 11.754266,11.287365 11.805667,11.897749 L 12.60548,11.830396 Q 12.581552,11.546254 12.859659,11.135987 13.330906,10.439201 13.371616,10.356283 13.640418,9.8355158 13.594334,9.2882746 Z M 12.957308,13.491229 12.864255,12.386225 11.643489,12.489026 11.736542,13.59403 Z"
       id="path955" />
  </g>
  <g
     inkscape:groupmode="layer"
     id="layer4"
     inkscape:label="U+32FF"
     style="display:none">
    <g
       id="g1579"
       transform="matrix(0.99758673,-0.04301043,0.09231118,0.99843916,-2.0729509,-0.08135214)">
      <rect
         y="7.3883023"
         x="9.4494047"
         height="7.2760415"
         width="7.2760415"
         id="rect1543"
         style="opacity:1;fill:none;fill-opacity:1;stroke:#030000;stroke-width:0.26499999;stroke-linejoin:round;stroke-miterlimit:4;stroke-dasharray:none;stroke-dashoffset:0;stroke-opacity:1" />
      <g
         transform="translate(-4.7171488e-7,0.05362075)"
         id="g1569">
        <text
           xml:space="preserve"
           style="font-style:normal;font-weight:normal;font-size:3.88055563px;line-height:6.61458302px;font-family:Sans;letter-spacing:0px;word-spacing:0px;fill:#000000;fill-opacity:1;stroke:none;stroke-width:0.26458332px;stroke-linecap:butt;stroke-linejoin:miter;stroke-opacity:1"
           x="10.806084"
           y="10.705043"
           id="text1547"><tspan
             sodipodi:role="line"
             x="10.806084"
             y="10.705043"
             style="font-style:normal;font-variant:normal;font-weight:normal;font-stretch:normal;font-size:3.88055563px;line-height:0px;font-family:monospace;-inkscape-font-specification:monospace;stroke-width:0.26458332px"
             id="tspan1553"><tspan
               dy="0"
               id="tspan1555"
               style="font-style:normal;font-variant:normal;font-weight:normal;font-stretch:normal;font-size:3.88055563px;line-height:0px;font-family:monospace;-inkscape-font-specification:monospace;stroke-width:0.26458332px">32</tspan></tspan></text>
        <text
           id="text1561"
           y="13.965088"
           x="10.730291"
           style="font-style:normal;font-weight:normal;font-size:3.88055563px;line-height:6.61458302px;font-family:Sans;letter-spacing:0px;word-spacing:0px;fill:#000000;fill-opacity:1;stroke:none;stroke-width:0.26458332px;stroke-linecap:butt;stroke-linejoin:miter;stroke-opacity:1"
           xml:space="preserve"><tspan
             id="tspan1559"
             style="font-style:normal;font-variant:normal;font-weight:normal;font-stretch:normal;font-size:3.88055563px;line-height:0px;font-family:monospace;-inkscape-font-specification:monospace;stroke-width:0.26458332px"
             y="13.965088"
             x="10.730291"
             sodipodi:role="line">FF<tspan
   style="font-style:normal;font-variant:normal;font-weight:normal;font-stretch:normal;font-size:3.88055563px;line-height:0px;font-family:monospace;-inkscape-font-specification:monospace;stroke-width:0.26458332px"
   id="tspan1557" /></tspan></text>
      </g>
    </g>
  </g>
</svg>
